<?xml version="1.0" encoding="UTF-8" standalone="no"?>
<!-- Created with Inkscape (http://www.inkscape.org/) -->

<svg
   xmlns:dc="http://purl.org/dc/elements/1.1/"
   xmlns:cc="http://creativecommons.org/ns#"
   xmlns:rdf="http://www.w3.org/1999/02/22-rdf-syntax-ns#"
   xmlns:svg="http://www.w3.org/2000/svg"
   xmlns="http://www.w3.org/2000/svg"
   xmlns:sodipodi="http://sodipodi.sourceforge.net/DTD/sodipodi-0.dtd"
   xmlns:inkscape="http://www.inkscape.org/namespaces/inkscape"
   width="210mm"
   height="297mm"
   viewBox="0 0 210 297"
   version="1.1"
   id="svg1105"
   inkscape:version="0.92.2 5c3e80d, 2017-08-06"
   sodipodi:docname="penguin2.svg">
  <defs
     id="defs1099" />
  <sodipodi:namedview
     id="base"
     pagecolor="#ffffff"
     bordercolor="#666666"
     borderopacity="1.0"
     inkscape:pageopacity="0.0"
     inkscape:pageshadow="2"
     inkscape:zoom="0.35"
     inkscape:cx="289.37941"
     inkscape:cy="595.35972"
     inkscape:document-units="mm"
     inkscape:current-layer="layer1"
     showgrid="false"
     inkscape:window-width="1440"
     inkscape:window-height="803"
     inkscape:window-x="0"
     inkscape:window-y="1"
     inkscape:window-maximized="1" />
  <metadata
     id="metadata1102">
    <rdf:RDF>
      <cc:Work
         rdf:about="">
        <dc:format>image/svg+xml</dc:format>
        <dc:type
           rdf:resource="http://purl.org/dc/dcmitype/StillImage" />
        <dc:title></dc:title>
      </cc:Work>
    </rdf:RDF>
  </metadata>
  <g
     inkscape:label="Layer 1"
     inkscape:groupmode="layer"
     id="layer1">
    <path
       style="opacity:1;fill:none;stroke:#ff0000;stroke-width:0.20199999;stroke-miterlimit:4;stroke-dasharray:none;stroke-opacity:1"
       d="M 4.3304851,5.1366372 V 126.16749 c 0,66.56705 0.024587,121.03137 0.054777,121.03137 0.03019,0 2.8309419,-1.49308 6.2239089,-3.31763 l 6.169132,-3.31711 4.162537,-5.42809 4.163053,-5.42809 16.218131,-7.63209 c 9.951336,-4.68277 16.239593,-7.59692 16.273425,-7.54218 0.03033,0.0491 0.09511,0.0747 0.143661,0.0574 0.04856,-0.0173 1.19167,-1.12478 2.540412,-2.46135 l 2.452566,-2.43034 -1.041281,-4.1739 -1.040762,-4.17391 -1.883606,-24.39644 -1.88309,-24.39593 2.813264,-25.34574 c 1.5473,-13.93995 2.859749,-25.49744 2.916619,-25.6837 0.05687,-0.18627 4.104494,-6.968315 8.994799,-15.070915 L 80.499478,71.726927 85.71518,54.708845 c 2.86871,-9.3599 5.263192,-17.180737 5.321123,-17.379817 0.05792,-0.199091 0.222765,-0.489932 0.366384,-0.646473 0.197173,-0.214931 3.44388,-1.907415 13.257583,-6.911207 l 12.99663,-6.626468 13.37696,-8.974129 c 7.35753,-4.9357796 13.3932,-8.9876715 13.41261,-9.0041013 0.0194,-0.0164 -31.49849,-0.029972 -70.040161,-0.029973 z m 143.4460149,0 0.0382,0.3596682 c 0.0306,0.2854698 -0.0742,0.692662 -0.50849,1.968872 -4.46644,13.1242396 -10.38777,30.7260236 -10.38697,30.8771856 8.6e-4,0.107389 0.33959,2.595676 0.75293,5.529376 l 0.75138,5.334043 2.76779,11.260293 c 2.23972,9.111951 2.81227,11.333366 3.00136,11.641667 0.12853,0.20955 2.63404,4.172275 5.56762,8.805664 2.93357,4.63338 5.38187,8.514151 5.4405,8.624281 0.0636,0.119388 0.87304,7.587623 2.00556,18.499643 l 1.89962,18.29966 -1.40249,15.79025 -1.40302,15.79025 -3.12952,26.85573 c -1.72125,14.77052 -3.12953,26.94389 -3.12953,27.05209 0,0.1082 -0.68403,1.62453 -1.52032,3.3693 -1.04894,2.18844 -1.48862,3.18915 -1.418,3.22668 0.0563,0.0299 2.71215,0.87665 5.90197,1.88154 l 5.79964,1.82676 3.04788,0.42995 c 6.16579,0.86927 7.67675,1.08797 7.70444,1.11569 0.0156,0.0156 1.31323,2.162 2.88354,4.76974 1.57031,2.60773 2.96008,4.89352 3.08819,5.07979 0.12809,0.18626 1.91367,2.45077 3.96823,5.03225 l 3.73569,4.69377 11.36571,4.04213 c 6.25111,2.22301 11.41344,4.0443 11.47165,4.04782 0.0846,0.005 0.10542,-24.6677 0.10542,-123.09895 V 5.1366372 h -29.19925 z m -7.83052,8.7565718 c -0.0197,-0.0197 -6.10649,5.763628 -13.52631,12.851927 l -13.49065,12.888103 0.33176,0.145211 c 0.18252,0.0799 2.40858,1.099947 4.94647,2.266529 2.53788,1.16658 4.63328,2.119974 4.65656,2.118733 0.0233,-10e-4 3.88405,-6.804546 8.57984,-15.118458 4.69579,-8.313909 8.52198,-15.132385 8.50233,-15.152045 z m -7.29103,2.788977 c 0.005,-0.01832 -0.0565,0.01909 -0.18139,0.09508 -0.47606,0.28972 -12.61511,8.445657 -12.76304,8.575187 -0.14184,0.1242 -3.71689,6.956308 -3.776,7.216097 -0.0159,0.07 0.17446,-0.06728 0.42323,-0.30489 0.24876,-0.23759 3.90047,-3.719819 8.11475,-7.73803 4.21428,-4.018199 7.7957,-7.439896 7.95869,-7.604186 0.14568,-0.14685 0.21838,-0.220946 0.22376,-0.239262 z m 7.15563,3.572391 c -0.17407,0.19891 -13.91535,24.602714 -13.87564,24.642423 0.0246,0.0246 1.20114,0.209105 2.61431,0.409794 1.41317,0.2007 2.5942,0.369562 2.62413,0.375172 0.0299,0.006 0.0801,-0.05653 0.11214,-0.137975 0.045,-0.11457 5.68689,-16.764492 8.18193,-24.146331 0.22733,-0.67259 0.38158,-1.187023 0.34313,-1.143083 z m -24.83931,7.610905 c -0.0419,-0.0419 -17.49407,8.890895 -17.453192,8.933305 0.04794,0.0497 11.317302,1.591392 11.717632,1.603002 l 0.2992,0.0093 2.7311,-5.260144 c 1.502,-2.892898 2.71935,-5.271376 2.70526,-5.285465 z M 94.535314,39.448237 c -0.01595,0.016 0.809683,3.208589 1.834512,7.094659 1.02484,3.886068 1.904307,7.227485 1.954403,7.425386 0.05009,0.197911 0.114782,0.358357 0.144177,0.356568 0.0294,-0.002 2.120344,-2.945207 4.646224,-6.540688 4.54751,-6.473179 4.59037,-6.537629 4.36046,-6.599079 -0.3132,-0.0837 -12.903031,-1.773586 -12.939776,-1.736846 z m 17.844386,3.238045 c -0.0417,0.0417 3.59979,20.261169 3.69693,20.52743 0.0245,0.0673 0.28133,-0.580268 0.57051,-1.439188 0.28918,-0.858911 1.53717,-4.562856 2.77347,-8.230507 l 2.24793,-6.668326 -0.27027,-0.116271 c -0.14859,-0.064 -2.22838,-1.016844 -4.62194,-2.117185 -2.39358,-1.100338 -4.37211,-1.980472 -4.39663,-1.955953 z m -2.86029,1.111562 -4.76199,6.76806 c -2.61911,3.722412 -4.762397,6.806242 -4.763007,6.852811 -8.5e-4,0.0466 3.039567,2.039226 6.756177,4.428154 5.25022,3.3747 6.76165,4.30946 6.77632,4.190961 0.0104,-0.0839 -0.88692,-5.122188 -1.99419,-11.196217 z m 25.20879,1.005104 c -0.0917,0.0051 -0.21089,0.437999 -0.45423,1.164273 -0.37021,1.104939 -0.44714,1.418 -0.3483,1.418 0.11127,0 0.11928,0.317362 0.0656,2.582272 -0.0336,1.420289 -0.0424,2.58227 -0.0196,2.58227 0.0228,0 0.35919,-0.74509 0.74776,-1.656228 l 0.70642,-1.656747 -0.27802,-2.04742 c -0.2298,-1.692418 -0.30172,-2.392995 -0.41962,-2.38642 z m -41.308065,2.383319 c -0.04167,0.29967 -1.629278,27.169721 -1.622639,27.462922 0.0036,0.1622 0.02156,0.256894 0.03927,0.210322 0.01773,-0.0466 1.026901,-3.887769 2.242757,-8.536429 l 2.210718,-8.452196 -1.424202,-5.420858 c -0.783227,-2.98143 -1.433909,-5.350052 -1.445908,-5.263761 z m 33.093585,0.845942 c -0.0181,0.0145 0.34627,0.627481 0.80977,1.362191 0.46351,0.734719 1.45004,2.298097 2.19211,3.474207 0.74709,1.184069 1.3579,2.071891 1.36891,1.989542 0.0109,-0.0818 0.0559,-1.501092 0.0997,-3.153812 0.0438,-1.65273 0.0618,-3.022293 0.0403,-3.043743 -0.049,-0.049 -4.46598,-0.664305 -4.51084,-0.628385 z m -2.63188,1.612305 c -0.0332,0.0382 -0.98663,2.831801 -2.11873,6.207889 -1.1321,3.376081 -2.37549,7.066177 -2.76314,8.200017 -0.436,1.275271 -0.66075,2.044737 -0.58963,2.017448 0.0632,-0.0243 2.70063,-1.500047 5.86114,-3.279386 3.16051,-1.779341 5.77958,-3.265236 5.8198,-3.301608 0.0402,-0.0364 -1.32705,-2.281717 -3.03806,-4.989875 -1.71102,-2.708162 -3.13819,-4.892686 -3.17138,-4.854485 z m -33.637221,0.484208 c -0.03997,-0.04 -6.784769,22.009616 -6.774262,22.145935 0.01363,0.1769 4.697778,11.263397 4.75888,11.263397 0.02676,0 0.496623,-7.511889 1.043866,-16.693039 0.547235,-9.18115 0.984208,-16.703603 0.971516,-16.716293 z m 46.341351,4.096391 c -0.0901,-0.105209 -2.48362,5.582964 -2.40502,5.715415 0.0883,0.148759 5.37942,6.495208 5.41517,6.495208 0.0144,0 0.0109,-0.04771 -0.008,-0.105936 h -5.1e-4 c -0.0191,-0.0582 -0.69087,-2.791613 -1.49242,-6.074563 -0.80155,-3.28295 -1.48067,-5.996493 -1.50947,-6.030124 z m -37.847813,6.086451 c -0.04207,0.0496 -5.129615,19.394659 -6.748426,25.660447 -0.02707,0.10477 -0.03077,0.190688 -0.0083,0.190688 0.0225,0 4.760746,-3.73648 10.529589,-8.303371 5.76884,-4.566888 10.48877,-8.345138 10.48877,-8.395869 0,-0.131048 -14.189707,-9.236766 -14.261665,-9.151895 z m 30.232263,3.224609 -0.57671,0.320911 c -1.4205,0.79076 -11.07904,6.239663 -11.10733,6.266283 -0.0174,0.0163 0.3637,3.363745 0.84646,7.438305 0.48276,4.074562 0.90501,7.380787 0.93844,7.347357 0.0334,-0.0334 2.21961,-4.727546 4.8581,-10.431407 2.63849,-5.703858 4.85193,-10.499174 4.91908,-10.656196 z m 2.69906,1.292945 c -0.0313,0.002 -8.50553,18.283679 -10.60194,22.871988 -0.19434,0.425349 -0.20744,0.496509 -0.0847,0.45992 0.0798,-0.0238 3.36442,-0.906026 7.2993,-1.960087 h 5.2e-4 c 3.93487,-1.054081 7.17707,-1.941274 7.20524,-1.971974 0.0567,-0.0619 -3.75026,-19.404017 -3.81837,-19.399847 z m 3.24218,0.706416 c -0.0348,0.0348 2.72666,14.181463 2.81998,14.446663 0.0629,0.178879 7e-5,0.31964 1.64434,-3.682979 0.80339,-1.9558 1.46171,-3.600104 1.46296,-3.653523 0.003,-0.114551 -5.87373,-7.163702 -5.92728,-7.110161 z m -20.4277,6.718969 c -0.0308,-0.0358 -4.73748,3.641122 -10.45931,8.170561 l -10.403493,8.235156 2.873727,0.06356 c 2.390934,0.0526 11.242786,0.158012 18.353396,0.218594 l 1.67897,0.01447 -0.046,-0.233061 c -0.0252,-0.128058 -0.47245,-3.871243 -0.99374,-8.318354 -0.52128,-4.44712 -0.97273,-8.115173 -1.00356,-8.150924 z m -32.842432,3.471106 c -0.0461,-0.0464 -10.040789,16.380476 -13.758852,22.613607 -0.05782,0.0969 -0.03895,0.115853 0.08423,0.08268 0.08776,-0.0236 4.496699,-2.055879 9.797335,-4.51652 8.654034,-4.017351 9.633816,-4.491659 9.599414,-4.647779 -0.0516,-0.23409 -5.639599,-13.4489 -5.72213,-13.53199 z m 60.427312,1.867069 c -0.0333,0.0336 -0.75422,1.751793 -1.60197,3.818372 -1.24978,3.0466 -1.52716,3.794088 -1.46554,3.951697 0.10667,0.272799 7.34604,13.327629 7.37474,13.298929 0.0129,-0.0129 -0.9371,-4.772752 -2.1115,-10.577131 -1.17439,-5.804389 -2.16245,-10.525506 -2.19573,-10.491867 z m 3.6003,2.415358 c -0.0245,0.0245 4.11439,20.486824 4.17339,20.632844 0.0687,0.17003 0.022,0.35861 1.30173,-5.243604 0.61088,-2.674239 1.09378,-4.926094 1.07332,-5.004345 -0.0366,-0.139739 -6.51681,-10.416516 -6.54844,-10.384895 z m -9.16636,7.102409 c -0.0911,-0.0304 -14.02165,3.68473 -14.22291,3.79305 -0.0816,0.0439 0.10241,0.18641 0.59221,0.45837 9.71767,5.395928 22.99506,12.737405 23.04614,12.742895 0.0372,0.004 -0.0653,-0.23089 -0.22789,-0.52194 -0.16253,-0.29104 -2.27666,-4.109849 -4.69842,-8.486301 -2.42177,-4.376459 -4.44199,-7.970356 -4.48913,-7.986074 z m -43.572537,4.573362 c -0.01338,0.0134 5.506162,5.803683 12.265397,12.866913 6.75925,7.06323 12.29532,12.83499 12.30261,12.82661 0.007,-0.008 -0.1602,-5.72999 -0.37207,-12.71499 -0.21187,-6.984988 -0.39139,-12.70919 -0.39894,-12.720149 -0.0202,-0.0293 -23.768353,-0.287173 -23.796997,-0.258384 z m -5.566585,1.035598 c -0.04663,-0.0315 -19.527101,9.056165 -19.4908,9.092465 0.09588,0.0959 16.596111,6.515 16.613457,6.46317 0.01044,-0.0312 0.66631,-3.5412 1.457274,-7.80004 0.790967,-4.258841 1.42984,-7.748997 1.420069,-7.755595 z m 32.391302,0.33383 c -0.0143,0.0143 0.14594,5.619207 0.35605,12.455565 0.2101,6.83638 0.38189,12.65694 0.38189,12.93462 0,0.47949 0.0102,0.50268 0.19068,0.46302 0.10477,-0.023 5.48621,-2.3368 11.95896,-5.14233 6.47277,-2.80553 12.21757,-5.2934 12.76615,-5.52834 0.54858,-0.23494 0.96755,-0.45517 0.93121,-0.48938 -0.0363,-0.0342 -5.41892,-3.02358 -11.96154,-6.643 -6.54262,-3.619414 -12.50378,-6.916926 -13.24674,-7.328237 -0.74296,-0.4113 -1.36236,-0.736229 -1.37666,-0.721918 z m -29.430241,0.311092 c -0.0056,6.77e-4 -0.0098,0.0036 -0.01344,0.0072 -0.06463,0.0646 -3.010109,15.930853 -2.96571,15.975253 0.06591,0.0659 26.500371,8.62381 26.538951,8.59173 0.0209,-0.0174 -0.32573,-0.4017 -0.7705,-0.85421 -0.71863,-0.73118 -5.70308,-5.93958 -17.883661,-18.68724 -4.395025,-4.599638 -4.821883,-5.042921 -4.905642,-5.032766 z m 62.998731,5.927801 c -0.004,-0.004 -0.008,-0.0038 -0.0129,10e-4 -0.0596,0.0629 -1.91409,8.262472 -1.91409,8.463052 0,0.15801 0.9773,2.51088 3.49074,8.40207 0.095,0.22261 0.18358,0.39417 0.19689,0.38086 0.0133,-0.0133 -0.37201,-3.83402 -0.85628,-8.49044 -0.48428,-4.65641 -0.88108,-8.539169 -0.88212,-8.628418 -7.5e-4,-0.0669 -0.01,-0.116073 -0.0222,-0.128159 z m -88.033897,4.796612 c -0.03088,0.0361 -1.093978,9.43841 -2.362128,20.89381 -1.268151,11.45541 -2.325902,20.98041 -2.350762,21.16667 l -0.04496,0.33848 0.207221,-0.29663 c 0.113985,-0.16298 5.228424,-8.08478 11.365714,-17.60409 6.137296,-9.51931 11.163189,-17.36081 11.168311,-17.42581 0.01091,-0.13842 -17.892167,-7.17927 -17.983398,-7.07243 z m 81.077217,6.9882 c -0.0305,-0.0304 -25.61253,11.03357 -25.68939,11.11043 -0.0508,0.0508 0.86448,31.29958 0.97411,33.25585 0.0281,0.50166 0.0664,0.89679 0.0847,0.8785 0.0183,-0.0183 5.57318,-10.20024 12.34447,-22.62652 6.77129,-12.42628 12.29993,-22.6044 12.28607,-22.61826 z m 2.40761,1.98799 c -0.0401,-0.0474 -14.27376,25.98032 -25.51886,46.66382 l -0.24805,0.4563 0.28784,-0.0486 c 0.15836,-0.0266 6.93625,-0.80107 15.06213,-1.72083 8.12589,-0.91975 14.78466,-1.67852 14.79703,-1.6862 0.044,-0.0273 -4.32704,-43.60187 -4.38009,-43.66452 z m -59.464587,0.0537 c -0.03245,-10e-4 -0.03431,0.0248 -0.0041,0.0749 0.346075,0.57259 29.356637,43.57741 29.380637,43.55341 0.0177,-0.0177 -0.2036,-7.76265 -0.49197,-17.21084 -0.28837,-9.44819 -0.53454,-17.19193 -0.54673,-17.20825 -0.0122,-0.0163 -6.35873,-2.08392 -14.10354,-4.59455 -7.744792,-2.51063 -14.130749,-4.58286 -14.19137,-4.60488 -0.01749,-0.006 -0.03208,-0.009 -0.04289,-0.01 z m -2.747637,1.4211 c -0.01734,0.006 -0.02206,0.0435 -0.02325,0.11627 -0.0015,0.0915 -1.311026,10.35804 -2.910417,22.81463 -1.599385,12.45658 -2.896724,22.66117 -2.883027,22.67665 0.0208,0.0235 7.159837,0.0879 23.025978,0.20774 1.49013,0.0113 5.19604,0.0293 8.23515,0.0403 l 5.52525,0.0196 -1.00459,-1.50275 c -3.63049,-5.42952 -29.767274,-44.19827 -29.864837,-44.29858 -0.05273,-0.0542 -0.08291,-0.0799 -0.100253,-0.0739 z m -3.279902,2.20658 c -0.03674,-0.0458 -22.650053,35.07698 -22.637379,35.16013 0.0071,0.0466 3.560487,1.63887 7.896159,3.5388 4.335674,1.89994 8.168576,3.58237 8.517826,3.73879 0.69229,0.31007 0.76033,0.33093 0.765844,0.23616 0.002,-0.0349 1.234919,-9.64532 2.739885,-21.35684 1.504969,-11.71151 2.727992,-21.30418 2.717665,-21.31704 z m 68.999396,1.01958 c -0.0277,0.003 -0.0287,0.0776 -0.004,0.23151 0.0266,0.16299 0.5648,5.51577 1.19579,11.89539 0.63098,6.37965 1.17221,11.69476 1.20303,11.81117 0.0724,0.27328 -0.005,1.04189 0.77463,-7.70444 l 0.65991,-7.40833 -1.8526,-4.35942 c -1.01875,-2.3974 -1.89183,-4.39735 -1.94045,-4.4447 -0.0153,-0.0149 -0.0275,-0.0221 -0.0367,-0.0212 z m -91.356687,37.59253 c -0.0082,0.0104 4.579157,13.0812 10.194726,29.04578 5.615567,15.96458 10.224363,28.98477 10.241235,28.93415 0.01687,-0.0506 -0.816314,-11.47393 -1.851049,-25.38553 -1.034737,-13.9116 -1.885524,-25.29899 -1.890842,-25.30492 -0.03083,-0.0344 -16.681772,-7.30505 -16.69407,-7.28948 z m 92.137527,4.40904 c -0.0219,-0.0219 -6.83476,0.7356 -15.14016,1.68361 -10.88688,1.24268 -15.09521,1.75202 -15.08022,1.8247 0.0114,0.0555 5.57423,9.91309 12.36152,21.90616 10.92126,19.29775 12.34782,21.77882 12.40338,21.57026 0.0345,-0.12962 1.28512,-10.74529 2.77915,-23.5903 1.49404,-12.845 2.69823,-23.37254 2.67633,-23.39443 z m -72.418317,3.38687 c -0.01456,0.0141 4.075999,55.03244 4.164087,56.00743 0.03094,0.34249 0.08566,0.59017 0.121438,0.55036 0.03579,-0.0398 7.427518,-12.69081 16.426382,-28.11301 8.99886,-15.42221 16.36718,-28.07147 16.37368,-28.1094 0.007,-0.0379 -3.62681,-0.0956 -8.07392,-0.12868 -4.44712,-0.0331 -12.791039,-0.0964 -18.542022,-0.14004 -5.750986,-0.0437 -10.462512,-0.0736 -10.469645,-0.0667 z m -19.890777,0.75396 c -0.01149,0.0115 0.616265,8.25429 1.394746,18.31775 l 1.415418,18.29707 0.291973,0.33848 c 0.832924,0.96533 15.945561,17.37644 15.974734,17.34726 0.01884,-0.0188 -4.261225,-12.24912 -9.511046,-27.17819 -5.24982,-14.92906 -9.554336,-27.13386 -9.565825,-27.12237 z m 58.088444,3.57859 -7.75715,13.2917 c -4.26665,7.31042 -11.348257,19.44477 -15.736507,26.96528 -4.388247,7.52052 -8.057325,13.80349 -8.153506,13.96193 l -0.174667,0.28784 0.205155,-0.0532 c 0.112964,-0.0295 7.349424,-2.50545 16.080675,-5.50199 l 15.875,-5.44825 -0.0222,-2.10995 c -0.012,-1.16047 -0.0634,-10.33932 -0.1142,-20.39772 -0.0508,-10.0584 -0.11696,-18.89717 -0.14728,-19.6417 z m 3.09128,0.28681 c -0.0105,0 -0.0208,0.005 -0.0284,0.0145 -0.0258,0.033 0.24275,42.6709 0.26923,42.73899 0.007,0.0173 1.98422,0.007 4.39405,-0.0238 2.40982,-0.0305 7.75143,-0.0942 11.87059,-0.14108 4.11915,-0.0469 7.50241,-0.0977 7.51789,-0.11317 0.0228,-0.0228 -23.89021,-42.34059 -23.99388,-42.46097 -0.008,-0.01 -0.0189,-0.0145 -0.0295,-0.0145 z M 65.054426,206.637 c -0.02019,0.0558 4.311729,17.52411 4.426603,17.85007 0.02051,0.0582 0.112721,0.10542 0.20464,0.10542 0.09192,0 2.483837,-0.2265 5.315436,-0.50385 2.8316,-0.27734 5.260809,-0.51546 5.398638,-0.52916 0.236302,-0.0235 -0.193183,-0.50924 -7.534942,-8.50749 -4.282262,-4.66517 -7.797022,-8.45192 -7.810375,-8.41499 z m -1.481048,6.43061 -0.300757,0.28061 c -1.386909,1.29263 -13.730427,13.48788 -13.730427,13.56557 0,0.21808 1.288899,2.05107 4.232817,6.01876 1.693011,2.28177 3.284934,4.42768 3.537252,4.7687 0.252317,0.34101 0.469471,0.60726 0.482658,0.59221 0.01319,-0.0151 1.44667,-4.8583 3.185334,-10.76317 3.129688,-10.62908 3.163232,-10.73593 3.361553,-10.68616 0.163962,0.0412 0.191931,0.0232 0.154511,-0.10077 -0.02514,-0.0833 -0.243014,-0.94449 -0.484206,-1.91358 z m 80.857082,0.21291 c -0.0104,-0.0104 -4.49577,0.0338 -9.96736,0.0982 -5.47158,0.0644 -10.55812,0.11819 -11.30318,0.11989 l -1.35444,0.003 -3.40961,12.42457 c -1.87531,6.83351 -3.40906,12.45681 -3.40806,12.49588 0.002,0.0904 -1.62311,1.47215 15.00683,-12.75581 7.95003,-6.80177 14.44623,-12.37541 14.43582,-12.38581 z m -25.98705,1.15445 c -0.0207,-0.0511 -31.184151,10.59307 -31.263719,10.67842 -0.02542,0.0273 24.110529,15.38974 24.140639,15.36547 0.007,-0.006 1.61882,-5.85478 3.58066,-12.99714 1.96185,-7.14236 3.55594,-13.01346 3.54242,-13.04675 z m 25.65425,3.13986 c -0.009,-0.008 -0.0273,-0.008 -0.0532,5.2e-4 -0.0517,0.0177 -6.08095,5.15675 -13.39815,11.41997 -7.3172,6.26322 -13.40469,11.47191 -13.52785,11.57501 -0.12317,0.1031 -0.19442,0.18901 -0.15865,0.19068 0.0358,0.002 3.95958,-0.64654 8.71988,-1.44022 4.7603,-0.79366 8.68027,-1.46986 8.7111,-1.50275 0.0308,-0.0329 2.21678,-4.57477 4.85707,-10.09292 2.64028,-5.51815 4.82081,-10.06644 4.8457,-10.1074 0.0124,-0.0205 0.013,-0.0352 0.004,-0.0429 z m -78.34457,4.21215 -1.092954,3.70985 c -1.909752,6.48115 -1.983825,6.73914 -1.911511,6.66316 0.03902,-0.041 0.965787,-1.45188 2.05982,-3.13573 l 1.989027,-3.06183 -0.521933,-2.08773 z m 16.786055,4.53977 c -0.05189,-0.0315 -10.378,1.01614 -10.344586,1.04955 0.278053,0.27805 12.618127,10.12801 12.635404,10.08569 0.01315,-0.0322 -0.492627,-2.54851 -1.123963,-5.59139 -0.631335,-3.04288 -1.156388,-5.53749 -1.166855,-5.54385 z m 3.428733,1.67432 c -0.02405,0.10883 2.388222,11.81246 2.446361,11.86904 0.01787,0.0174 4.052046,0.27769 8.96483,0.57878 4.912781,0.30109 8.960911,0.55214 8.995831,0.5581 0.0349,0.006 0.0636,-0.0178 0.0636,-0.0532 0,-0.12179 -20.446968,-13.05955 -20.470582,-12.9527 z m -17.394287,0.78238 c -0.09544,0 -7.811239,11.79893 -7.753533,11.85664 0.03744,0.0374 22.478883,5.35304 22.652365,5.36556 0.05821,0.004 0.105937,-0.01 0.105937,-0.0305 0,-0.0917 -14.924741,-17.19171 -15.004769,-17.19171 z m 73.277179,0.48782 c -0.0894,-0.0291 -4.20923,8.60344 -4.13928,8.67338 0.0313,0.0314 2.99907,0.42603 6.59546,0.87746 3.59639,0.45143 6.56777,0.82537 6.6027,0.83096 0.0349,0.006 0.0636,-0.0232 0.0636,-0.0641 0,-0.0822 -9.02038,-10.28446 -9.12244,-10.31772 z m -61.264477,8.68216 c -0.01297,-7.4e-4 0.0025,0.0236 0.03359,0.0625 0.534737,0.67092 5.258261,6.06505 5.284949,6.03529 0.01351,-0.0151 -0.01854,-0.47245 -0.07131,-1.01596 l -0.09612,-0.98805 -2.246376,-1.80558 c -2.250784,-1.80937 -2.848536,-2.28501 -2.904733,-2.28823 z m 53.416897,3.00085 c -0.0255,-0.0266 -17.26418,2.85782 -17.30128,2.89492 -0.0292,0.0292 18.21268,11.54749 18.24747,11.52177 0.0115,-0.008 -0.19181,-3.25082 -0.45217,-7.20524 -0.26037,-3.95442 -0.48284,-7.19976 -0.49402,-7.21145 z m 6.09316,0.3421 c -0.11721,0.0125 1.32098,1.36332 4.8643,4.56871 2.76683,2.50296 5.05594,4.55115 5.08703,4.55115 0.0311,0 0.63435,-1.62623 1.34101,-3.61374 0.70666,-1.98751 1.29316,-3.69096 1.30276,-3.7853 0.0167,-0.16454 -0.23537,-0.20336 -6.20582,-0.95498 -3.42265,-0.43087 -6.29774,-0.77559 -6.38928,-0.76584 z m -2.96261,1.5136 c -0.0308,0.0356 0.47179,7.63809 0.50747,7.67705 0.019,0.0208 6.18954,0.56048 8.7576,0.76585 0.0921,0.007 0.0809,-0.0319 -0.0424,-0.14935 -0.72582,-0.69163 -9.20376,-8.31547 -9.2227,-8.29355 z m -48.293685,0.11472 c -0.07369,0.0737 0.284368,3.76612 0.365352,3.76773 0.0484,9.3e-4 3.010101,-0.65538 6.58151,-1.45831 3.571418,-0.80294 6.476183,-1.47733 6.454903,-1.49861 -0.0475,-0.0475 -13.359705,-0.85287 -13.401765,-0.81081 z m 22.241015,1.94562 c -0.0408,-0.0408 -19.147851,4.23767 -19.410699,4.34651 -0.208592,0.0864 -0.769853,-0.3173 6.386174,4.59196 3.282955,2.25221 8.445335,5.79672 11.472165,7.87653 3.02684,2.0798 5.51203,3.75732 5.52266,3.72793 0.0106,-0.0294 -0.86998,-4.6551 -1.95699,-10.27947 -1.087,-5.62437 -1.99287,-10.24301 -2.01331,-10.26346 z m 3.27474,1.07436 c -0.0125,0.0144 0.8449,4.51361 1.90531,9.99835 1.06041,5.48473 1.9532,10.10628 1.98385,10.26966 l 0.0558,0.29662 0.60927,-0.33486 c 0.33514,-0.1843 3.77171,-2.05503 7.63674,-4.15737 3.86504,-2.10235 7.05209,-3.84896 7.08277,-3.8809 0.0307,-0.0319 -4.28793,-2.79374 -9.59734,-6.13761 -5.3094,-3.34386 -9.66391,-6.06824 -9.67641,-6.05389 z m 21.15426,14.6823 c -0.26033,0.0395 -1.43113,0.65492 -5.33611,2.77968 -2.94039,1.59992 -5.41697,2.9498 -5.50302,2.99981 -0.13276,0.0772 -0.11138,0.0906 0.14004,0.0889 0.16298,-10e-4 2.81855,-0.25805 5.90093,-0.57103 3.08237,-0.31297 5.63191,-0.59708 5.66581,-0.63097 0.055,-0.055 -0.6799,-4.29198 -0.80667,-4.65088 -0.005,-0.0151 -0.0238,-0.0212 -0.061,-0.0155 z"
       id="path1715"
       inkscape:connector-curvature="0" />
  </g>
</svg>
